<?xml version="1.0" standalone="no"?><svg xmlns="http://www.w3.org/2000/svg" viewBox="0 0 1440 320"><path fill="#0099ff" fill-opacity="1" d="M0,96L17.1,117.3C34.3,139,69,181,103,213.3C137.1,245,171,267,206,245.3C240,224,274,160,309,122.7C342.9,85,377,75,411,74.7C445.7,75,480,85,514,117.3C548.6,149,583,203,617,213.3C651.4,224,686,192,720,186.7C754.3,181,789,203,823,208C857.1,213,891,203,926,192C960,181,994,171,1029,138.7C1062.9,107,1097,53,1131,48C1165.7,43,1200,85,1234,101.3C1268.6,117,1303,107,1337,112C1371.4,117,1406,139,1423,149.3L1440,160L1440,320L1422.9,320C1405.7,320,1371,320,1337,320C1302.9,320,1269,320,1234,320C1200,320,1166,320,1131,320C1097.1,320,1063,320,1029,320C994.3,320,960,320,926,320C891.4,320,857,320,823,320C788.6,320,754,320,720,320C685.7,320,651,320,617,320C582.9,320,549,320,514,320C480,320,446,320,411,320C377.1,320,343,320,309,320C274.3,320,240,320,206,320C171.4,320,137,320,103,320C68.6,320,34,320,17,320L0,320Z" data-darkreader-inline-fill="" style="--darkreader-inline-fill:#007acc;"></path></svg>